<?xml version="1.0" encoding="utf-8"?>
<!-- Generator: Adobe Illustrator 23.1.1, SVG Export Plug-In . SVG Version: 6.00 Build 0)  -->
<svg version="1.1" id="Layer_1" xmlns="http://www.w3.org/2000/svg" xmlns:xlink="http://www.w3.org/1999/xlink" x="0px" y="0px"
	 viewBox="0 0 368.1 350.2" style="enable-background:new 0 0 368.1 350.2;" xml:space="preserve">
<g>
	<path d="M224.9,175.1L359.3,48.4c11.2-10.6,11.8-28.3,1.2-39.6C349.9-2.4,332.2-3,320.9,7.6l-136.9,129L47.2,7.6
		C35.9-3,18.2-2.5,7.6,8.8C-3,20.1-2.5,37.8,8.8,48.4l134.4,126.7L8.8,301.8C-2.5,312.4-3,330.1,7.6,341.4
		c5.5,5.8,12.9,8.8,20.4,8.8c6.9,0,13.8-2.5,19.2-7.6l136.9-129l136.9,129c5.4,5.1,12.3,7.6,19.2,7.6c7.4,0,14.9-3,20.4-8.8
		c10.6-11.3,10.1-29-1.2-39.6L224.9,175.1z"/>
</g>
</svg>
