<?xml version="1.0" encoding="utf-8"?>
<!-- Generator: Adobe Illustrator 23.1.1, SVG Export Plug-In . SVG Version: 6.00 Build 0)  -->
<svg version="1.1" id="Layer_1" xmlns="http://www.w3.org/2000/svg" xmlns:xlink="http://www.w3.org/1999/xlink" x="0px" y="0px"
	 viewBox="0 0 356.2 515.8" style="enable-background:new 0 0 356.2 515.8;" xml:space="preserve">
<g>
	<path d="M21.3,115.9c-6.2,11.2-9,24.1-7.8,37l29.1,305.8c3.4,32.5,30.2,57.1,63.3,57.1h144.5c33,0,59.9-24.6,63.3-57.7l29.1-305.8
		c1.1-12.9-1.7-25.8-7.8-37c12.3-5,21.3-16.8,21.3-31.4c0-18.5-15.1-33.6-33.6-33.6h-91.3C229.6,22.4,206.6,0,178.1,0
		s-51.5,22.4-53.2,50.4H33.6C15.1,50.4,0,65.5,0,84C0,98.6,9,110.9,21.3,115.9L21.3,115.9z M325.9,151.2L296.8,457
		c-2.2,24.1-22.4,42.6-46.5,42.6H105.8c-24.1,0-44.2-17.9-46.5-42.6L30.2,151.2c-1.1-11.8,2.2-23.5,9.5-33h276.6
		C323.7,127.7,327,139.4,325.9,151.2L325.9,151.2z M178.1,17.4c19,0,34.7,14.6,36.4,33.6h-72.8C143.4,32.5,159,17.4,178.1,17.4
		L178.1,17.4z M33.6,67.8h289c9.5,0,16.8,7.3,16.8,16.8c0,9.5-7.3,16.8-16.8,16.8l-289,0c-9.5,0-16.8-7.3-16.8-16.8
		C16.8,75,24.1,67.8,33.6,67.8L33.6,67.8z"/>
	<path d="M110.9,183.7c-4.5,0-8.4,3.9-8.4,8.4v239.1c0,4.5,3.9,8.4,8.4,8.4c4.5,0,8.4-3.9,8.4-8.4V192.1
		C119.3,187.6,115.4,183.7,110.9,183.7L110.9,183.7z"/>
	<path d="M178.1,183.7c-4.5,0-8.4,3.9-8.4,8.4v239.1c0,4.5,3.9,8.4,8.4,8.4c4.5,0,8.4-3.9,8.4-8.4V192.1
		C186.5,187.6,182.6,183.7,178.1,183.7L178.1,183.7z"/>
	<path d="M245.3,183.7c-4.5,0-8.4,3.9-8.4,8.4v239.1c0,4.5,3.9,8.4,8.4,8.4c4.5,0,8.4-3.9,8.4-8.4l0-239.1
		C253.7,187.6,249.8,183.7,245.3,183.7L245.3,183.7z"/>
</g>
</svg>
