<?xml version="1.0" encoding="utf-8"?>
<!-- Generator: Adobe Illustrator 23.1.1, SVG Export Plug-In . SVG Version: 6.00 Build 0)  -->
<svg version="1.1" id="Layer_1" xmlns="http://www.w3.org/2000/svg" xmlns:xlink="http://www.w3.org/1999/xlink" x="0px" y="0px"
	 viewBox="0 0 300.8 443" style="enable-background:new 0 0 300.8 443;" xml:space="preserve">
<g>
	<path d="M284.1,23.5L255.6,5.6c-17.4-10.6-39.8-5.6-51,11.8l-17.9,29.1L5.8,337.6v0.6v0.6c0,0.6,0,0.6-0.6,1.1v0.6v1.1v0.6l-6.2,93
		c0,2.8,1.1,6.2,3.9,7.8c1.1,1.1,2.8,1.1,4.5,1.1s2.8-0.6,3.9-1.1l81.8-46.5c0,0,0.6,0,0.6-0.6h0.6c0.6-0.6,1.7-1.1,2.2-2.2
		L277.4,103l17.9-29.1c5-8.4,6.7-18.5,4.5-28C298.1,36.9,292.5,28.5,284.1,23.5L284.1,23.5z M17,421.1l3.4-64.4L73,389.2L17,421.1z
		 M87,378l-62.2-38.6L196.8,62.7l10.1,6.2l52.6,32.5L87,378z M281.3,65.5l-13.4,21.8l-10.1-6.2l-52.6-32.5l13.4-21.8
		c5.6-9.5,17.9-12.3,27.4-6.2l28.6,17.9c4.5,2.8,7.8,7.3,9,12.3C285.2,55.4,284.1,61,281.3,65.5L281.3,65.5z"/>
</g>
</svg>
